<svg width="15" height="15" viewBox="0 0 15 15" fill="none" xmlns="http://www.w3.org/2000/svg">
<path d="M6.25 7.5C5.5625 7.5 4.97396 7.25521 4.48438 6.76562C3.99479 6.27604 3.75 5.6875 3.75 5C3.75 4.3125 3.99479 3.72396 4.48438 3.23438C4.97396 2.74479 5.5625 2.5 6.25 2.5C6.9375 2.5 7.52604 2.74479 8.01562 3.23438C8.50521 3.72396 8.75 4.3125 8.75 5C8.75 5.6875 8.50521 6.27604 8.01562 6.76562C7.52604 7.25521 6.9375 7.5 6.25 7.5ZM1.25 11.25V10.75C1.25 10.4063 1.33854 10.0833 1.51562 9.78125C1.69271 9.47917 1.9375 9.25 2.25 9.09375C2.85417 8.79167 3.47917 8.55458 4.125 8.3825C4.77083 8.21042 5.43229 8.12458 6.10938 8.125C6.28646 8.125 6.435 8.1875 6.555 8.3125C6.675 8.4375 6.73479 8.58854 6.73438 8.76562C6.73396 8.94271 6.67396 9.09125 6.55438 9.21125C6.43479 9.33125 6.28646 9.39104 6.10938 9.39062C5.52604 9.39062 4.96083 9.46354 4.41375 9.60938C3.86667 9.75521 3.33292 9.95833 2.8125 10.2188C2.70833 10.2708 2.63021 10.3438 2.57812 10.4375C2.52604 10.5313 2.5 10.6354 2.5 10.75V11.25H6.10938C6.28646 11.25 6.435 11.31 6.555 11.43C6.675 11.55 6.73479 11.6983 6.73438 11.875C6.73396 12.0517 6.67396 12.2002 6.55438 12.3206C6.43479 12.441 6.28646 12.5008 6.10938 12.5H2.5C2.15625 12.5 1.86208 12.3777 1.6175 12.1331C1.37292 11.8885 1.25042 11.5942 1.25 11.25ZM9.90625 12.625L9.8125 12.1875C9.6875 12.1354 9.57042 12.0808 9.46125 12.0238C9.35208 11.9667 9.24 11.8962 9.125 11.8125L8.67188 11.9531C8.53646 11.9948 8.40375 11.9896 8.27375 11.9375C8.14375 11.8854 8.04208 11.8021 7.96875 11.6875L7.84375 11.4688C7.77083 11.3438 7.74479 11.2083 7.76562 11.0625C7.78646 10.9167 7.85417 10.7969 7.96875 10.7031L8.3125 10.4062C8.29167 10.2604 8.28125 10.125 8.28125 10C8.28125 9.875 8.29167 9.73958 8.3125 9.59375L7.96875 9.29688C7.85417 9.20312 7.78646 9.08583 7.76562 8.945C7.74479 8.80417 7.77083 8.67146 7.84375 8.54688L7.98438 8.3125C8.05729 8.19792 8.15625 8.11458 8.28125 8.0625C8.40625 8.01042 8.53646 8.00521 8.67188 8.04688L9.125 8.1875C9.23958 8.10417 9.35167 8.03375 9.46125 7.97625C9.57083 7.91875 9.68792 7.86417 9.8125 7.8125L9.90625 7.35938C9.9375 7.21354 10.0079 7.09646 10.1175 7.00813C10.2271 6.91979 10.3546 6.87542 10.5 6.875H10.75C10.8958 6.875 11.0235 6.92188 11.1331 7.01562C11.2427 7.10938 11.3129 7.22917 11.3438 7.375L11.4375 7.8125C11.5625 7.86458 11.6796 7.92187 11.7887 7.98438C11.8979 8.04688 12.01 8.125 12.125 8.21875L12.5469 8.07812C12.6927 8.02604 12.8333 8.02604 12.9688 8.07812C13.1042 8.13021 13.2083 8.21875 13.2812 8.34375L13.4062 8.5625C13.4792 8.6875 13.5052 8.82292 13.4844 8.96875C13.4635 9.11458 13.3958 9.23438 13.2812 9.32812L12.9375 9.625C12.9583 9.75 12.9688 9.88021 12.9688 10.0156C12.9688 10.151 12.9583 10.2812 12.9375 10.4062L13.2812 10.7031C13.3958 10.7969 13.4635 10.9142 13.4844 11.055C13.5052 11.1958 13.4792 11.3285 13.4062 11.4531L13.2656 11.6875C13.1927 11.8021 13.0938 11.8854 12.9688 11.9375C12.8438 11.9896 12.7135 11.9948 12.5781 11.9531L12.125 11.8125C12.0104 11.8958 11.8983 11.966 11.7887 12.0231C11.6792 12.0802 11.5621 12.135 11.4375 12.1875L11.3438 12.6406C11.3125 12.7865 11.2423 12.9038 11.1331 12.9925C11.024 13.0813 10.8963 13.1254 10.75 13.125H10.5C10.3542 13.125 10.2267 13.0781 10.1175 12.9844C10.0083 12.8906 9.93792 12.7708 9.90625 12.625ZM10.625 11.25C10.9688 11.25 11.2631 11.1277 11.5081 10.8831C11.7531 10.6385 11.8754 10.3442 11.875 10C11.8746 9.65583 11.7523 9.36167 11.5081 9.1175C11.264 8.87333 10.9696 8.75083 10.625 8.75C10.2804 8.74917 9.98625 8.87167 9.7425 9.1175C9.49875 9.36333 9.37625 9.6575 9.375 10C9.37375 10.3425 9.49625 10.6369 9.7425 10.8831C9.98875 11.1294 10.2829 11.2517 10.625 11.25ZM6.25 6.25C6.59375 6.25 6.88812 6.12771 7.13313 5.88313C7.37813 5.63854 7.50042 5.34417 7.5 5C7.49958 4.65583 7.37729 4.36167 7.13313 4.1175C6.88896 3.87333 6.59458 3.75083 6.25 3.75C5.90542 3.74917 5.61125 3.87167 5.3675 4.1175C5.12375 4.36333 5.00125 4.6575 5 5C4.99875 5.3425 5.12125 5.63688 5.3675 5.88313C5.61375 6.12937 5.90792 6.25167 6.25 6.25Z" fill="black"/>
</svg>
