<svg width="22" height="13" viewBox="0 0 22 13" fill="none" xmlns="http://www.w3.org/2000/svg">
<path d="M0 13C0.15 11.2166 0.696 9.57495 1.638 8.07495C2.58 6.57495 3.834 5.38328 5.4 4.49995L3.55 1.29995C3.45 1.14995 3.425 0.991618 3.475 0.824951C3.525 0.658284 3.63333 0.533284 3.8 0.449951C3.93333 0.366618 4.08333 0.349951 4.25 0.399951C4.41667 0.449951 4.55 0.549951 4.65 0.699951L6.5 3.89995C7.93333 3.29995 9.43333 2.99995 11 2.99995C12.5667 2.99995 14.0667 3.29995 15.5 3.89995L17.35 0.699951C17.45 0.549951 17.5833 0.449951 17.75 0.399951C17.9167 0.349951 18.0667 0.366618 18.2 0.449951C18.3667 0.533284 18.475 0.658284 18.525 0.824951C18.575 0.991618 18.55 1.14995 18.45 1.29995L16.6 4.49995C18.1667 5.38328 19.4207 6.57495 20.362 8.07495C21.3033 9.57495 21.8493 11.2166 22 13H0ZM6 10.25C6.35 10.25 6.646 10.129 6.888 9.88695C7.13 9.64495 7.25067 9.34929 7.25 8.99995C7.25 8.64995 7.129 8.35395 6.887 8.11195C6.645 7.86995 6.34933 7.74928 6 7.74995C5.65 7.74995 5.354 7.87095 5.112 8.11295C4.87 8.35495 4.74933 8.65062 4.75 8.99995C4.75 9.34995 4.871 9.64595 5.113 9.88795C5.355 10.13 5.65067 10.2506 6 10.25ZM16 10.25C16.35 10.25 16.646 10.129 16.888 9.88695C17.13 9.64495 17.2507 9.34929 17.25 8.99995C17.25 8.64995 17.129 8.35395 16.887 8.11195C16.645 7.86995 16.3493 7.74928 16 7.74995C15.65 7.74995 15.354 7.87095 15.112 8.11295C14.87 8.35495 14.7493 8.65062 14.75 8.99995C14.75 9.34995 14.871 9.64595 15.113 9.88795C15.355 10.13 15.6507 10.2506 16 10.25Z" fill="black"/>
</svg>
