<svg width="11" height="11" viewBox="0 0 11 11" fill="none" xmlns="http://www.w3.org/2000/svg">
<path fill-rule="evenodd" clip-rule="evenodd" d="M5.82416 7.19904C5.73821 7.28496 5.62165 7.33323 5.50012 7.33323C5.37858 7.33323 5.26203 7.28496 5.17607 7.19904L2.58328 4.60624C2.53951 4.56396 2.50459 4.51339 2.48057 4.45747C2.45655 4.40155 2.44391 4.34141 2.44338 4.28055C2.44285 4.2197 2.45444 4.15934 2.47749 4.10302C2.50054 4.04669 2.53457 3.99551 2.5776 3.95248C2.62064 3.90945 2.67181 3.87541 2.72814 3.85237C2.78447 3.82932 2.84482 3.81773 2.90568 3.81825C2.96653 3.81878 3.02667 3.83143 3.08259 3.85545C3.13851 3.87947 3.18909 3.91439 3.23137 3.95816L5.50012 6.22691L7.76887 3.95816C7.85531 3.87467 7.97109 3.82847 8.09126 3.82952C8.21143 3.83056 8.32639 3.87877 8.41137 3.96374C8.49635 4.04872 8.54455 4.16368 8.54559 4.28385C8.54664 4.40403 8.50044 4.5198 8.41695 4.60624L5.82416 7.19904Z" fill="#121127"/>
</svg>
