<svg width="28" height="29" viewBox="0 0 28 29" fill="none" xmlns="http://www.w3.org/2000/svg">
<path d="M26.8299 21.1699L20.9999 15.3299V10.9999C21.0007 10.8683 20.9755 10.7379 20.9257 10.616C20.8759 10.4942 20.8026 10.3834 20.7099 10.2899L10.7099 0.289939C10.617 0.196211 10.5064 0.121816 10.3845 0.0710475C10.2627 0.0202789 10.132 -0.00585938 9.99994 -0.00585938C9.86793 -0.00585938 9.73722 0.0202789 9.61536 0.0710475C9.4935 0.121816 9.3829 0.196211 9.28994 0.289939L0.289939 9.28994C0.196211 9.3829 0.121816 9.4935 0.0710475 9.61536C0.0202789 9.73722 -0.00585938 9.86793 -0.00585938 9.99994C-0.00585938 10.132 0.0202789 10.2627 0.0710475 10.3845C0.121816 10.5064 0.196211 10.617 0.289939 10.7099L10.2899 20.7099C10.3834 20.8026 10.4942 20.8759 10.616 20.9257C10.7379 20.9755 10.8683 21.0007 10.9999 20.9999H15.3399L21.1699 26.8399C21.9205 27.5905 22.9385 28.0122 23.9999 28.0122C25.0614 28.0122 26.0794 27.5905 26.8299 26.8399C27.5805 26.0894 28.0022 25.0714 28.0022 24.0099C28.0022 22.9485 27.5805 21.9305 26.8299 21.1799V21.1699ZM3.99994 8.40994L6.28994 10.7099L7.70994 9.28994L5.40994 6.99994L6.99994 5.40994L11.2899 9.70994L12.7099 8.28994L8.40994 3.99994L9.99994 2.40994L16.5899 8.99994L8.99994 16.5899L2.40994 9.99994L3.99994 8.40994ZM25.4099 25.4099C25.0352 25.7824 24.5283 25.9915 23.9999 25.9915C23.4716 25.9915 22.9647 25.7824 22.5899 25.4099L16.4599 19.2899C16.2469 19.1434 16.0047 19.0445 15.7499 18.9999H11.4099L10.4099 17.9999L17.9999 10.4099L18.9999 11.4099V15.7499C19.001 16.0123 19.1052 16.2637 19.2899 16.4499L25.4099 22.5899C25.7824 22.9647 25.9915 23.4716 25.9915 23.9999C25.9915 24.5283 25.7824 25.0352 25.4099 25.4099Z" fill="black"/>
</svg>
