<svg width="15" height="15" viewBox="0 0 15 15" fill="none" xmlns="http://www.w3.org/2000/svg">
<g clip-path="url(#clip0_1193_464)">
<path d="M2.49984 2.5H9.1665V4.16667H9.99984V2.5C9.99984 2.27899 9.91204 2.06703 9.75576 1.91075C9.59948 1.75447 9.38752 1.66667 9.1665 1.66667H2.49984C2.27882 1.66667 2.06686 1.75447 1.91058 1.91075C1.7543 2.06703 1.6665 2.27899 1.6665 2.5V9.16667C1.6665 9.38768 1.7543 9.59964 1.91058 9.75592C2.06686 9.9122 2.27882 10 2.49984 10H4.1665V9.16667H2.49984V2.5Z" fill="black"/>
<path d="M12.5 5H5.83333C5.61232 5 5.40036 5.0878 5.24408 5.24408C5.0878 5.40036 5 5.61232 5 5.83333V12.5C5 12.721 5.0878 12.933 5.24408 13.0893C5.40036 13.2455 5.61232 13.3333 5.83333 13.3333H12.5C12.721 13.3333 12.933 13.2455 13.0893 13.0893C13.2455 12.933 13.3333 12.721 13.3333 12.5V5.83333C13.3333 5.61232 13.2455 5.40036 13.0893 5.24408C12.933 5.0878 12.721 5 12.5 5ZM12.5 12.5H5.83333V5.83333H12.5V12.5Z" fill="black"/>
<path d="M8.74984 11.6667H9.58317V9.58333H11.6665V8.75H9.58317V6.66667H8.74984V8.75H6.6665V9.58333H8.74984V11.6667Z" fill="black"/>
</g>
<defs>
<clipPath id="clip0_1193_464">
<rect width="15" height="15" fill="white"/>
</clipPath>
</defs>
</svg>
