<svg width="15" height="15" viewBox="0 0 15 15" fill="none" xmlns="http://www.w3.org/2000/svg">
<path d="M4.76 12.5C4.48 12.5 4.24167 12.4017 4.045 12.205C3.84833 12.0083 3.75 11.7702 3.75 11.4906V3.75H3.125V3.125H5.625V2.64375H9.375V3.125H11.875V3.75H11.25V11.4906C11.25 11.7781 11.1538 12.0183 10.9613 12.2112C10.7688 12.4042 10.5283 12.5004 10.24 12.5H4.76ZM10.625 3.75H4.375V11.4906C4.375 11.6027 4.41104 11.6948 4.48312 11.7669C4.55521 11.839 4.6475 11.875 4.76 11.875H10.2406C10.3365 11.875 10.4246 11.835 10.505 11.755C10.5854 11.675 10.6254 11.5867 10.625 11.49V3.75ZM6.13 10.625H6.755V5H6.13V10.625ZM8.245 10.625H8.87V5H8.245V10.625Z" fill="black"/>
</svg>
