<svg width="16" height="16" viewBox="0 0 16 16" fill="none" xmlns="http://www.w3.org/2000/svg">
<path d="M8.00007 0C8.19892 0.000175052 8.38955 0.0793075 8.53007 0.22L10.0301 1.72C10.1626 1.86217 10.2347 2.05022 10.2312 2.24452C10.2278 2.43882 10.1491 2.62421 10.0117 2.76162C9.87428 2.89903 9.6889 2.97775 9.49459 2.98117C9.30029 2.9846 9.11225 2.91248 8.97007 2.78L8.75007 2.56V4.25C8.75007 4.44891 8.67105 4.63968 8.5304 4.78033C8.38975 4.92098 8.19899 5 8.00007 5C7.80116 5 7.61039 4.92098 7.46974 4.78033C7.32909 4.63968 7.25007 4.44891 7.25007 4.25V2.56L7.03007 2.78C6.8879 2.91248 6.69985 2.9846 6.50555 2.98117C6.31125 2.97775 6.12586 2.89903 5.98845 2.76162C5.85104 2.62421 5.77233 2.43882 5.7689 2.24452C5.76547 2.05022 5.83759 1.86217 5.97007 1.72L7.47007 0.22C7.61059 0.0793075 7.80123 0.000175052 8.00007 0ZM10.0001 8C10.0001 8.53043 9.78936 9.03914 9.41429 9.41421C9.03921 9.78929 8.53051 10 8.00007 10C7.46964 10 6.96093 9.78929 6.58586 9.41421C6.21079 9.03914 6.00007 8.53043 6.00007 8C6.00007 7.46957 6.21079 6.96086 6.58586 6.58579C6.96093 6.21071 7.46964 6 8.00007 6C8.53051 6 9.03921 6.21071 9.41429 6.58579C9.78936 6.96086 10.0001 7.46957 10.0001 8ZM0.220073 7.47C0.079622 7.61063 0.000732422 7.80125 0.000732422 8C0.000732422 8.19875 0.079622 8.38937 0.220073 8.53L1.72007 10.03C1.86225 10.1625 2.05029 10.2346 2.2446 10.2312C2.4389 10.2277 2.62428 10.149 2.76169 10.0116C2.89911 9.87421 2.97782 9.68882 2.98125 9.49452C2.98468 9.30022 2.91255 9.11217 2.78007 8.97L2.56007 8.75H4.25007C4.44898 8.75 4.63975 8.67098 4.7804 8.53033C4.92105 8.38968 5.00007 8.19891 5.00007 8C5.00007 7.80109 4.92105 7.61032 4.7804 7.46967C4.63975 7.32902 4.44898 7.25 4.25007 7.25H2.56007L2.78007 7.03C2.91255 6.88783 2.98468 6.69978 2.98125 6.50548C2.97782 6.31118 2.89911 6.12579 2.76169 5.98838C2.62428 5.85097 2.4389 5.77225 2.2446 5.76883C2.05029 5.7654 1.86225 5.83752 1.72007 5.97L0.220073 7.47ZM8.00007 16C8.19892 15.9998 8.38955 15.9207 8.53007 15.78L10.0301 14.28C10.1038 14.2113 10.1629 14.1285 10.2039 14.0365C10.2448 13.9445 10.2669 13.8452 10.2687 13.7445C10.2704 13.6438 10.2519 13.5438 10.2142 13.4504C10.1765 13.357 10.1203 13.2722 10.0491 13.201C9.97789 13.1297 9.89306 13.0736 9.79967 13.0359C9.70628 12.9982 9.60625 12.9796 9.50555 12.9814C9.40485 12.9832 9.30553 13.0052 9.21353 13.0462C9.12154 13.0872 9.03873 13.1463 8.97007 13.22L8.75007 13.44V11.75C8.75007 11.5511 8.67105 11.3603 8.5304 11.2197C8.38975 11.079 8.19899 11 8.00007 11C7.80116 11 7.61039 11.079 7.46974 11.2197C7.32909 11.3603 7.25007 11.5511 7.25007 11.75V13.44L7.03007 13.22C6.8879 13.0875 6.69985 13.0154 6.50555 13.0188C6.31125 13.0223 6.12586 13.101 5.98845 13.2384C5.85104 13.3758 5.77233 13.5612 5.7689 13.7555C5.76547 13.9498 5.83759 14.1378 5.97007 14.28L7.47007 15.78C7.61007 15.921 7.80107 16 8.00007 16ZM15.7801 7.47C15.9205 7.61063 15.9994 7.80125 15.9994 8C15.9994 8.19875 15.9205 8.38937 15.7801 8.53L14.2801 10.03C14.2114 10.1037 14.1286 10.1628 14.0366 10.2038C13.9446 10.2448 13.8453 10.2668 13.7446 10.2686C13.6439 10.2704 13.5439 10.2518 13.4505 10.2141C13.3571 10.1764 13.2723 10.1203 13.201 10.049C13.1298 9.97782 13.0737 9.89299 13.0359 9.7996C12.9982 9.70621 12.9797 9.60618 12.9815 9.50548C12.9833 9.40477 13.0053 9.30546 13.0463 9.21346C13.0873 9.12146 13.1464 9.03866 13.2201 8.97L13.4401 8.75H11.7501C11.5512 8.75 11.3604 8.67098 11.2197 8.53033C11.0791 8.38968 11.0001 8.19891 11.0001 8C11.0001 7.80109 11.0791 7.61032 11.2197 7.46967C11.3604 7.32902 11.5512 7.25 11.7501 7.25H13.4401L13.2201 7.03C13.0876 6.88783 13.0155 6.69978 13.0189 6.50548C13.0223 6.31118 13.101 6.12579 13.2385 5.98838C13.3759 5.85097 13.5612 5.77225 13.7556 5.76883C13.9499 5.7654 14.1379 5.83752 14.2801 5.97L15.7801 7.47Z" fill="black"/>
</svg>
