<svg width="54" height="46" viewBox="0 0 54 46" fill="none" xmlns="http://www.w3.org/2000/svg">
<path d="M0 0.5H46C50.4183 0.5 54 4.08172 54 8.5V37.5C54 41.9183 50.4183 45.5 46 45.5H0V0.5Z" fill="#4B4B4B"/>
<path d="M17.25 18.5H22.5V20H17.25V18.5ZM17.25 22.25H22.5V23.75H17.25V22.25ZM17.25 26H22.5V27.5H17.25V26Z" fill="white"/>
<path d="M15.75 14.75H24C24.3977 14.7503 24.7791 14.9084 25.0604 15.1896C25.3416 15.4709 25.4997 15.8523 25.5 16.25V29.75C25.4995 30.1477 25.3413 30.5289 25.0601 30.8101C24.7789 31.0913 24.3977 31.2495 24 31.25H15.75V29.75H24.002L24 16.25H15.75V14.75Z" fill="white"/>
<path opacity="0.5" d="M44 23L39 28L38.3 27.3L42.6 23L38.3 18.7L39 18L44 23Z" fill="#8FA4B7"/>
</svg>
