<svg width="20" height="20" viewBox="0 0 20 20" fill="none" xmlns="http://www.w3.org/2000/svg">
<path d="M8.23199 8.23118C9.13912 7.32411 10.3602 6.80041 11.6426 6.76839C12.925 6.73638 14.1707 7.1985 15.122 8.05918L15.303 8.23118L18.131 11.0602C19.052 11.9828 19.5763 13.2288 19.592 14.5324C19.6077 15.836 19.1136 17.0941 18.215 18.0387C17.3165 18.9833 16.0845 19.5396 14.7818 19.589C13.479 19.6384 12.2085 19.177 11.241 18.3032L11.061 18.1312L8.93898 16.0092C8.75964 15.8292 8.65551 15.5877 8.64776 15.3338C8.64 15.0798 8.7292 14.8325 8.89723 14.6419C9.06527 14.4513 9.29954 14.3319 9.55246 14.3078C9.80538 14.2837 10.058 14.3568 10.259 14.5122L10.353 14.5952L12.475 16.7172C13.0251 17.2705 13.769 17.5877 14.5491 17.6016C15.3292 17.6154 16.084 17.3249 16.6534 16.7915C17.2228 16.2581 17.562 15.5239 17.5991 14.7446C17.6362 13.9653 17.3682 13.2022 16.852 12.6172L16.717 12.4742L13.889 9.64618C13.6104 9.36755 13.2797 9.14652 12.9157 8.99573C12.5516 8.84493 12.1615 8.76732 11.7675 8.76732C11.3735 8.76732 10.9833 8.84493 10.6193 8.99573C10.2553 9.14652 9.92457 9.36755 9.64598 9.64618C9.45834 9.83368 9.2039 9.93897 8.93863 9.93888C8.67336 9.93878 8.41899 9.83332 8.23148 9.64568C8.04398 9.45803 7.93869 9.20359 7.93878 8.93832C7.93888 8.67305 8.04434 8.41868 8.23199 8.23118ZM1.86799 1.86718C2.77512 0.960109 3.99618 0.436405 5.27861 0.404391C6.56105 0.372377 7.80673 0.834501 8.75799 1.69518L8.93898 1.86718L11.06 3.99018C11.2393 4.17013 11.3435 4.41161 11.3512 4.66556C11.359 4.91951 11.2698 5.16689 11.1017 5.35745C10.9337 5.54802 10.6994 5.66748 10.4465 5.69158C10.1936 5.71567 9.94098 5.64259 9.73998 5.48718L9.64598 5.40418L7.52498 3.28318C6.97395 2.73573 6.23207 2.42335 5.45542 2.41175C4.67877 2.40015 3.92789 2.69023 3.36075 3.22096C2.79361 3.7517 2.45443 4.48172 2.41456 5.25743C2.37469 6.03315 2.63725 6.79409 3.14698 7.38018L3.28199 7.52418L6.11098 10.3532C6.67357 10.9156 7.43649 11.2315 8.23199 11.2315C9.02748 11.2315 9.7904 10.9156 10.353 10.3532C10.4458 10.2603 10.5561 10.1866 10.6774 10.1362C10.7987 10.0859 10.9288 10.06 11.0601 10.06C11.1915 10.0599 11.3216 10.0858 11.4429 10.136C11.5643 10.1862 11.6746 10.2598 11.7675 10.3527C11.8604 10.4455 11.9341 10.5558 11.9844 10.6771C12.0347 10.7984 12.0606 10.9285 12.0607 11.0598C12.0607 11.1912 12.0349 11.3212 11.9847 11.4426C11.9345 11.564 11.8608 11.6743 11.768 11.7672C10.8609 12.6742 9.63979 13.1979 8.35735 13.23C7.07492 13.262 5.82925 12.7999 4.87799 11.9392L4.69598 11.7672L1.86799 8.93818C0.93063 8.00054 0.404053 6.729 0.404053 5.40318C0.404053 4.07735 0.93063 2.80481 1.86799 1.86718Z" fill="black"/>
</svg>
