<svg width="20" height="20" viewBox="0 0 20 20" fill="none" xmlns="http://www.w3.org/2000/svg">
<path d="M4 2.00006C3.46957 2.00006 2.96086 2.21077 2.58579 2.58584C2.21072 2.96092 2 3.46962 2 4.00006C2 4.53049 2.21072 5.0392 2.58579 5.41427C2.96086 5.78934 3.46957 6.00006 4 6.00006C4.53044 6.00006 5.03914 5.78934 5.41422 5.41427C5.78929 5.0392 6 4.53049 6 4.00006C6 3.46962 5.78929 2.96092 5.41422 2.58584C5.03914 2.21077 4.53044 2.00006 4 2.00006ZM1.95568e-06 4.00006C-0.000960956 3.02579 0.353685 2.08467 0.997376 1.35333C1.64107 0.621992 2.52954 0.150723 3.49605 0.0279766C4.46255 -0.0947694 5.44062 0.139447 6.24669 0.686666C7.05276 1.23388 7.6314 2.05648 7.874 3.00006H16.083L16.164 3.01406C17.0054 3.16267 17.8001 3.50693 18.484 4.01906C19.288 4.63706 20 5.61406 20 7.00006C20 8.38606 19.29 9.36306 18.483 9.98106C17.7994 10.4931 17.0051 10.8373 16.164 10.9861L16.083 11.0001H4C3.763 11.0001 3.228 11.1481 2.75 11.5301C2.303 11.8881 2 12.3721 2 13.0001C2 13.6281 2.303 14.1121 2.75 14.4701C3.228 14.8521 3.763 15.0001 4 15.0001H15V12.5001L19.667 16.0001L15 19.5001V17.0001H4C3.237 17.0001 2.272 16.6481 1.5 16.0301C0.697002 15.3891 1.95568e-06 14.3731 1.95568e-06 13.0001C1.95568e-06 11.6281 0.697002 10.6121 1.5 9.97006C2.272 9.35206 3.237 9.00006 4 9.00006H15.91C16.284 8.92506 16.827 8.73006 17.267 8.39406C17.711 8.05406 18 7.61406 18 7.00006C18 6.38606 17.71 5.94706 17.267 5.60606C16.8637 5.30856 16.4007 5.10184 15.91 5.00006H7.874C7.62827 5.94055 7.04864 6.75945 6.24333 7.30386C5.43802 7.84826 4.4621 8.08096 3.49778 7.95849C2.53346 7.83602 1.64669 7.36677 1.00303 6.63834C0.359371 5.90991 0.00283796 4.97211 1.95568e-06 4.00006Z" fill="black"/>
</svg>
