<svg width="23" height="23" viewBox="0 0 23 23" fill="none" xmlns="http://www.w3.org/2000/svg">
<path d="M5.75 10.0625H10.0625V11.5H5.75V10.0625ZM5.75 4.3125H14.375V5.75H5.75V4.3125ZM5.75 7.1875H14.375V8.625H5.75V7.1875ZM5.75 17.25H10.0625V18.6875H5.75V17.25ZM21.5625 17.25V15.8125H20.0524C19.9597 15.3626 19.7811 14.9348 19.5263 14.5525L20.5972 13.4816L19.5809 12.4653L18.51 13.5362C18.1277 13.2814 17.6999 13.1028 17.25 13.0101V11.5H15.8125V13.0101C15.3626 13.1028 14.9348 13.2814 14.5525 13.5362L13.4816 12.4653L12.4653 13.4816L13.5362 14.5525C13.2814 14.9348 13.1028 15.3626 13.0101 15.8125H11.5V17.25H13.0101C13.1028 17.6999 13.2814 18.1277 13.5362 18.51L12.4653 19.5809L13.4816 20.5972L14.5525 19.5263C14.9348 19.7811 15.3626 19.9597 15.8125 20.0524V21.5625H17.25V20.0524C17.6999 19.9597 18.1277 19.7811 18.51 19.5263L19.5809 20.5972L20.5972 19.5809L19.5263 18.51C19.7811 18.1277 19.9597 17.6999 20.0524 17.25H21.5625ZM16.5312 18.6875C16.1048 18.6875 15.6879 18.561 15.3333 18.3241C14.9787 18.0872 14.7023 17.7504 14.5391 17.3564C14.3759 16.9624 14.3332 16.5289 14.4164 16.1106C14.4996 15.6923 14.705 15.3081 15.0066 15.0066C15.3081 14.705 15.6923 14.4996 16.1106 14.4164C16.5289 14.3332 16.9624 14.3759 17.3564 14.5391C17.7504 14.7023 18.0872 14.9787 18.3241 15.3333C18.561 15.6879 18.6875 16.1048 18.6875 16.5312C18.6869 17.1029 18.4596 17.6511 18.0553 18.0553C17.6511 18.4596 17.1029 18.6869 16.5312 18.6875Z" fill="black"/>
<path d="M10.0625 21.5625H4.3125C3.93137 21.5621 3.56596 21.4105 3.29645 21.141C3.02695 20.8715 2.87538 20.5061 2.875 20.125V2.875C2.87538 2.49387 3.02695 2.12846 3.29645 1.85895C3.56596 1.58945 3.93137 1.43788 4.3125 1.4375H15.8125C16.1936 1.43788 16.559 1.58945 16.8285 1.85895C17.098 2.12846 17.2496 2.49387 17.25 2.875V10.0625H15.8125V2.875H4.3125V20.125H10.0625V21.5625Z" fill="black"/>
</svg>
