<svg width="20" height="20" viewBox="0 0 20 20" fill="none" xmlns="http://www.w3.org/2000/svg">
<path d="M13.6001 5.10022L10.5001 8.20022L12.3001 10.0002L15.4001 6.90022C15.7001 6.60022 15.6001 5.90022 15.1001 5.40022C14.6001 4.90022 14.0001 4.80022 13.6001 5.10022ZM13.9001 0.300218C13.2001 -0.0997821 4.10006 7.60022 4.10006 7.60022C4.10006 7.60022 0.60006 5.50022 0.10006 5.90022C-0.39994 6.30022 4.10006 10.9002 4.10006 10.9002C4.10006 10.9002 14.6001 0.600218 13.9001 0.300218ZM19.4001 9.60022C18.9001 9.10022 18.2001 9.00022 17.9001 9.30022L14.8001 12.4002L16.6001 14.2002L19.7001 11.0002C20.0001 10.8002 19.9001 10.1002 19.4001 9.60022ZM7.70006 8.60022C7.00006 9.30022 6.60006 11.3002 6.60006 12.4002V16.2002L5.40006 17.4002C4.80006 18.0002 4.80006 18.9002 5.40006 19.5002C6.00006 20.1002 6.90006 20.1002 7.50006 19.5002L8.70006 18.3002H12.5001C13.7001 18.3002 15.5001 17.9002 16.2001 17.2002L17.4001 16.4002L8.50006 7.50022L7.70006 8.60022Z" fill="black"/>
</svg>
