<svg width="55" height="46" viewBox="0 0 55 46" fill="none" xmlns="http://www.w3.org/2000/svg">
<path d="M0 8.5C0 4.08172 3.58172 0.5 8 0.5H55V45.5H8C3.58172 45.5 0 41.9183 0 37.5V8.5Z" fill="#4B4B4B"/>
<path opacity="0.5" d="M14 23L19 18L19.7 18.7L15.4 23L19.7 27.3L19 28L14 23Z" fill="#8FA4B7"/>
<path d="M44.375 17.375H46.875V19.875H44.375V17.375ZM44.375 21.125H46.875V23.625H44.375V21.125ZM40.625 17.375H43.125V19.875H40.625V17.375ZM40.625 21.125H43.125V23.625H40.625V21.125Z" fill="white"/>
<path d="M39.0625 29.25C39.5802 29.25 40 28.8302 40 28.3125C40 27.7948 39.5802 27.375 39.0625 27.375C38.5448 27.375 38.125 27.7948 38.125 28.3125C38.125 28.8302 38.5448 29.25 39.0625 29.25Z" fill="white"/>
<path d="M43.125 31.75H35C34.6686 31.7497 34.3508 31.6178 34.1165 31.3835C33.8821 31.1492 33.7503 30.8314 33.75 30.5V15.5C33.7503 15.1686 33.8821 14.8508 34.1165 14.6165C34.3508 14.3821 34.6686 14.2503 35 14.25H43.125V15.5H35V30.5H43.125V25.5H44.375V30.5C44.3747 30.8314 44.2428 31.1492 44.0085 31.3835C43.7742 31.6178 43.4564 31.7497 43.125 31.75Z" fill="white"/>
</svg>
