<svg width="45" height="45" viewBox="0 0 45 45" fill="none" xmlns="http://www.w3.org/2000/svg">
<g opacity="0.6">
<rect x="0.400391" y="0.400009" width="44" height="44" rx="8" fill="white"/>
<rect x="0.900391" y="0.900009" width="43" height="43" rx="7.5" stroke="#05092B" stroke-opacity="0.25"/>
<path d="M24.6505 29.9C24.252 29.9073 23.856 29.8351 23.4857 29.6876C23.1154 29.5401 22.7782 29.3204 22.4938 29.0411C22.2094 28.7619 21.9835 28.4287 21.8293 28.0612C21.6751 27.6937 21.5957 27.2991 21.5957 26.9005C21.5957 26.5019 21.6751 26.1074 21.8293 25.7398C21.9835 25.3723 22.2094 25.0392 22.4938 24.7599C22.7782 24.4807 23.1154 24.2609 23.4857 24.1134C23.856 23.9659 24.252 23.8937 24.6505 23.901C25.4365 23.9154 26.1855 24.2377 26.7363 24.7986C27.2871 25.3596 27.5957 26.1143 27.5957 26.9005C27.5957 27.6867 27.2871 28.4414 26.7363 29.0024C26.1855 29.5633 25.4365 29.8857 24.6505 29.9ZM24.6505 25.4C24.2526 25.4 23.8711 25.558 23.5898 25.8394C23.3085 26.1207 23.1505 26.5022 23.1505 26.9C23.1505 27.2978 23.3085 27.6794 23.5898 27.9607C23.8711 28.242 24.2526 28.4 24.6505 28.4C25.0483 28.4 25.4298 28.242 25.7111 27.9607C25.9924 27.6794 26.1505 27.2978 26.1505 26.9C26.1505 26.5022 25.9924 26.1207 25.7111 25.8394C25.4298 25.558 25.0483 25.4 24.6505 25.4Z" fill="black"/>
<path d="M30.6504 32.15H18.6504C18.2526 32.15 17.871 31.992 17.5897 31.7107C17.3084 31.4294 17.1504 31.0478 17.1504 30.65V23.9C17.1504 23.5022 17.3084 23.1207 17.5897 22.8393C17.871 22.558 18.2526 22.4 18.6504 22.4H21.1104L21.5174 21.176C21.6169 20.8771 21.8081 20.6172 22.0637 20.433C22.3193 20.2488 22.6264 20.1498 22.9414 20.15H26.3594C26.6744 20.1498 26.9815 20.2488 27.2371 20.433C27.4927 20.6172 27.6838 20.8771 27.7834 21.176L28.1904 22.4H30.6504C31.0482 22.4 31.4297 22.558 31.7111 22.8393C31.9924 23.1207 32.1504 23.5022 32.1504 23.9V30.65C32.1504 31.0478 31.9924 31.4294 31.7111 31.7107C31.4297 31.992 31.0482 32.15 30.6504 32.15ZM18.6504 30.65H30.6504V23.9H27.1104L26.3604 21.65H22.9404L22.1904 23.9H18.6504V30.65ZM30.6504 18.65H32.1504V20.15H30.6504V18.65ZM30.6504 15.65H32.1504V17.15H30.6504V15.65ZM30.6504 12.65H32.1504V14.15H30.6504V12.65ZM27.6504 12.65H29.1504V14.15H27.6504V12.65ZM24.6504 12.65H26.1504V14.15H24.6504V12.65ZM21.6504 12.65H23.1504V14.15H21.6504V12.65ZM18.6504 12.65H20.1504V14.15H18.6504V12.65ZM15.6504 12.65H17.1504V14.15H15.6504V12.65ZM12.6504 12.65H14.1504V14.15H12.6504V12.65ZM12.6504 15.65H14.1504V17.15H12.6504V15.65ZM12.6504 18.65H14.1504V20.15H12.6504V18.65ZM12.6504 21.65H14.1504V23.15H12.6504V21.65ZM12.6504 24.65H14.1504V26.15H12.6504V24.65ZM12.6504 27.65H14.1504V29.15H12.6504V27.65ZM12.6504 30.65H14.1504V32.15H12.6504V30.65Z" fill="black"/>
</g>
</svg>
