<svg width="13" height="12" viewBox="0 0 13 12" fill="none" xmlns="http://www.w3.org/2000/svg">
<path d="M12.4566 3.76211L9.64414 0.949612C9.57858 0.883982 9.49503 0.839278 9.40405 0.821161C9.31307 0.803044 9.21877 0.812327 9.13307 0.847836C9.04737 0.883345 8.97413 0.943483 8.92263 1.02064C8.87113 1.09779 8.84368 1.18849 8.84375 1.28125V3.625H8.66797C7.31633 3.62372 6.00267 4.0721 4.9339 4.89954C3.86512 5.72698 3.10197 6.88645 2.76465 8.19532C2.73357 8.31575 2.7516 8.4436 2.81479 8.55074C2.87797 8.65788 2.98113 8.73553 3.10156 8.7666C3.222 8.79769 3.34985 8.77965 3.45698 8.71647C3.56412 8.65328 3.64177 8.55013 3.67285 8.42969C3.95874 7.32244 4.60461 6.34164 5.50885 5.64158C6.41309 4.94152 7.5244 4.56193 8.66797 4.5625H8.84375V6.90625C8.84368 6.99902 8.87113 7.08972 8.92263 7.16687C8.97413 7.24402 9.04737 7.30416 9.13307 7.33967C9.21877 7.37518 9.31307 7.38446 9.40405 7.36635C9.49503 7.34823 9.57858 7.30352 9.64414 7.23789L12.4566 4.42539C12.5002 4.38186 12.5348 4.33016 12.5584 4.27326C12.582 4.21635 12.5941 4.15535 12.5941 4.09375C12.5941 4.03215 12.582 3.97116 12.5584 3.91425C12.5348 3.85734 12.5002 3.80565 12.4566 3.76211ZM9.78125 5.77481V2.4127L11.4623 4.09375L9.78125 5.77481ZM10.7188 10.6563C10.7188 10.7806 10.6694 10.8998 10.5815 10.9877C10.4935 11.0756 10.3743 11.125 10.25 11.125H0.875C0.75068 11.125 0.631451 11.0756 0.543544 10.9877C0.455636 10.8998 0.40625 10.7806 0.40625 10.6563V3.15625C0.40625 3.03193 0.455636 2.9127 0.543544 2.8248C0.631451 2.73689 0.75068 2.6875 0.875 2.6875C0.99932 2.6875 1.11855 2.73689 1.20646 2.8248C1.29436 2.9127 1.34375 3.03193 1.34375 3.15625V10.1875H10.25C10.3743 10.1875 10.4935 10.2369 10.5815 10.3248C10.6694 10.4127 10.7188 10.5319 10.7188 10.6563Z" fill="black"/>
</svg>
