<svg width="45" height="45" viewBox="0 0 45 45" fill="none" xmlns="http://www.w3.org/2000/svg">
<g opacity="0.6">
<rect x="0.400391" y="0.400009" width="44" height="44" rx="8" fill="white"/>
<rect x="0.900391" y="0.900009" width="43" height="43" rx="7.5" stroke="#05092B" stroke-opacity="0.25"/>
<path d="M15.5252 30.9C15.0252 30.9 14.5962 30.725 14.2382 30.375C13.8795 30.025 13.7002 29.6 13.7002 29.1V15.7C13.7002 15.2 13.8795 14.775 14.2382 14.425C14.5962 14.075 15.0252 13.9 15.5252 13.9H24.2002V15.4H15.5252C15.4252 15.4 15.3462 15.4293 15.2882 15.488C15.2295 15.546 15.2002 15.6167 15.2002 15.7V29.1C15.2002 29.1833 15.2295 29.2543 15.2882 29.313C15.3462 29.371 15.4252 29.4 15.5252 29.4H28.9002C28.9835 29.4 29.0542 29.371 29.1122 29.313C29.1709 29.2543 29.2002 29.1833 29.2002 29.1V20.4H30.7002V29.1C30.7002 29.6 30.5252 30.025 30.1752 30.375C29.8252 30.725 29.4002 30.9 28.9002 30.9H15.5252ZM27.6002 19.025V17.025H25.6002V15.525H27.6002V13.525H29.1002V15.525H31.1002V17.025H29.1002V19.025H27.6002ZM16.9502 27.15H27.5252L24.2502 22.775L21.4502 26.425L19.4502 23.85L16.9502 27.15Z" fill="black"/>
</g>
</svg>
