<svg width="17" height="16" viewBox="0 0 17 16" fill="none" xmlns="http://www.w3.org/2000/svg">
<path d="M10.0801 5H13.5801V6H10.0801V5ZM10.0801 7.5H13.5801V8.5H10.0801V7.5ZM10.0801 10H13.5801V11H10.0801V10Z" fill="black"/>
<path d="M14.5801 2.5H2.58008C2.31486 2.5 2.06051 2.60536 1.87297 2.79289C1.68543 2.98043 1.58008 3.23478 1.58008 3.5V12.5C1.58034 12.7651 1.68578 13.0193 1.87326 13.2068C2.06074 13.3943 2.31494 13.4997 2.58008 13.5H14.5801C14.8451 13.4995 15.0992 13.3939 15.2866 13.2065C15.474 13.0191 15.5795 12.7651 15.5801 12.5V3.5C15.5798 3.23486 15.4744 2.98066 15.2869 2.79319C15.0994 2.60571 14.8452 2.50026 14.5801 2.5ZM2.58008 3.5H8.08008V12.5H2.58008V3.5ZM9.08008 12.5V3.5H14.5801L14.5811 12.5H9.08008Z" fill="black"/>
</svg>
